<svg width="28" height="25" viewBox="0 0 28 25" fill="none" xmlns="http://www.w3.org/2000/svg">
<path d="M8.33333 15.7407C8.11672 15.7451 7.90543 15.6734 7.73624 15.538C7.56706 15.4027 7.4507 15.2123 7.40741 15L5.24074 4.08333C5.11455 3.4542 4.77444 2.88816 4.27819 2.48138C3.78195 2.07459 3.16018 1.85215 2.51852 1.85185H0.925926C0.680355 1.85185 0.444842 1.7543 0.271197 1.58065C0.0975526 1.40701 0 1.1715 0 0.925926C0 0.680355 0.0975526 0.444842 0.271197 0.271197C0.444842 0.0975527 0.680355 9.65077e-08 0.925926 9.65077e-08H2.51852C3.58579 -0.000217732 4.62036 0.368318 5.44713 1.04324C6.27391 1.71815 6.8421 2.658 7.05556 3.7037L9.25926 14.6296C9.28616 14.7514 9.28818 14.8774 9.2652 14.9999C9.24223 15.1225 9.19472 15.2392 9.12555 15.343C9.05637 15.4467 8.96694 15.5354 8.86263 15.6038C8.75832 15.6722 8.64127 15.7187 8.51852 15.7407H8.33333Z" fill="white"/>
<path d="M9.25936 22.2221H7.53713C6.55509 22.216 5.61284 21.8333 4.90474 21.1528C4.19665 20.4723 3.77672 19.5461 3.73159 18.565C3.68646 17.584 4.01956 16.6231 4.66219 15.8805C5.30482 15.1379 6.20795 14.6702 7.18528 14.574L24.2316 13.0277L25.7223 5.55547H6.48158C6.23601 5.55547 6.00049 5.45791 5.82685 5.28427C5.6532 5.11062 5.55565 4.87511 5.55565 4.62954C5.55565 4.38397 5.6532 4.14846 5.82685 3.97481C6.00049 3.80117 6.23601 3.70361 6.48158 3.70361H26.8519C26.9887 3.70452 27.1236 3.73571 27.2469 3.79494C27.3701 3.85418 27.4788 3.93999 27.5649 4.04621C27.6554 4.15034 27.7215 4.2734 27.7584 4.40636C27.7952 4.53933 27.8019 4.67885 27.7779 4.81472L25.926 14.074C25.8869 14.2698 25.7855 14.4477 25.637 14.5812C25.4885 14.7147 25.3008 14.7966 25.1019 14.8147L7.35195 16.4258C6.82888 16.4504 6.33699 16.6817 5.9845 17.069C5.632 17.4562 5.44776 17.9676 5.47232 18.4906C5.49688 19.0137 5.72821 19.5056 6.11544 19.8581C6.50267 20.2106 7.01407 20.3948 7.53713 20.3703H9.25936C9.50493 20.3703 9.74044 20.4678 9.91408 20.6415C10.0877 20.8151 10.1853 21.0506 10.1853 21.2962C10.1853 21.5418 10.0877 21.7773 9.91408 21.9509C9.74044 22.1246 9.50493 22.2221 9.25936 22.2221Z" fill="white"/>
<path d="M23.148 24.9999C22.4155 24.9999 21.6994 24.7827 21.0904 24.3758C20.4813 23.9688 20.0066 23.3903 19.7263 22.7136C19.4459 22.0368 19.3726 21.2921 19.5155 20.5737C19.6584 19.8552 20.0112 19.1953 20.5291 18.6773C21.0471 18.1593 21.707 17.8066 22.4255 17.6637C23.1439 17.5208 23.8886 17.5941 24.5654 17.8745C25.2422 18.1548 25.8206 18.6295 26.2276 19.2386C26.6345 19.8476 26.8517 20.5637 26.8517 21.2962C26.8517 22.2785 26.4615 23.2206 25.767 23.9151C25.0724 24.6097 24.1303 24.9999 23.148 24.9999ZM23.148 19.4444C22.7818 19.4444 22.4237 19.553 22.1192 19.7565C21.8147 19.96 21.5773 20.2492 21.4372 20.5876C21.297 20.9259 21.2603 21.2983 21.3318 21.6575C21.4032 22.0167 21.5796 22.3467 21.8386 22.6057C22.0976 22.8647 22.4275 23.0411 22.7868 23.1125C23.146 23.184 23.5183 23.1473 23.8567 23.0071C24.1951 22.867 24.4843 22.6296 24.6878 22.3251C24.8913 22.0205 24.9999 21.6625 24.9999 21.2962C24.9999 20.8051 24.8048 20.3341 24.4575 19.9868C24.1102 19.6395 23.6392 19.4444 23.148 19.4444Z" fill="white"/>
<path d="M12.0372 24.9999C11.3047 24.9999 10.5886 24.7827 9.97953 24.3758C9.37046 23.9688 8.89575 23.3903 8.61543 22.7136C8.3351 22.0368 8.26176 21.2921 8.40466 20.5737C8.54757 19.8552 8.90032 19.1953 9.41829 18.6773C9.93626 18.1593 10.5962 17.8066 11.3146 17.6637C12.0331 17.5208 12.7778 17.5941 13.4545 17.8745C14.1313 18.1548 14.7098 18.6295 15.1167 19.2386C15.5237 19.8476 15.7409 20.5637 15.7409 21.2962C15.7409 22.2785 15.3507 23.2206 14.6561 23.9151C13.9615 24.6097 13.0195 24.9999 12.0372 24.9999ZM12.0372 19.4444C11.6709 19.4444 11.3129 19.553 11.0084 19.7565C10.7038 19.96 10.4665 20.2492 10.3263 20.5876C10.1862 20.9259 10.1495 21.2983 10.2209 21.6575C10.2924 22.0167 10.4688 22.3467 10.7277 22.6057C10.9867 22.8647 11.3167 23.0411 11.6759 23.1125C12.0351 23.184 12.4075 23.1473 12.7459 23.0071C13.0843 22.867 13.3735 22.6296 13.577 22.3251C13.7804 22.0205 13.8891 21.6625 13.8891 21.2962C13.8891 20.8051 13.6939 20.3341 13.3467 19.9868C12.9994 19.6395 12.5283 19.4444 12.0372 19.4444Z" fill="white"/>
<path d="M20.3702 22.2222H14.8146C14.569 22.2222 14.3335 22.1247 14.1599 21.951C13.9862 21.7774 13.8887 21.5419 13.8887 21.2963C13.8887 21.0507 13.9862 20.8152 14.1599 20.6416C14.3335 20.4679 14.569 20.3704 14.8146 20.3704H20.3702C20.6157 20.3704 20.8512 20.4679 21.0249 20.6416C21.1985 20.8152 21.2961 21.0507 21.2961 21.2963C21.2961 21.5419 21.1985 21.7774 21.0249 21.951C20.8512 22.1247 20.6157 22.2222 20.3702 22.2222Z" fill="white"/>
</svg>
