<svg width="106" height="16" viewBox="0 0 106 16" fill="none" xmlns="http://www.w3.org/2000/svg">
<path d="M17.0371 6.0608L11.1767 5.2049L8.48838 0L5.85174 5.23055L0 6.14275L4.23095 10.2313L3.30268 16L8.55416 13.2963L13.8322 15.9493L12.8469 10.1898L17.0371 6.0608Z" fill="#FFC413"/>
<path d="M39.2393 6.0608L33.3788 5.2049L30.6905 0L28.0539 5.23055L22.2021 6.14275L26.4331 10.2313L25.5048 16L30.7563 13.2963L36.0343 15.9493L35.049 10.1898L39.2393 6.0608Z" fill="#FFC413"/>
<path d="M61.4417 6.0608L55.5812 5.2049L52.8929 0L50.2563 5.23055L44.4045 6.14275L48.6355 10.2313L47.7072 16L52.9587 13.2963L58.2367 15.9493L57.2514 10.1898L61.4417 6.0608Z" fill="#FFC413"/>
<path d="M83.6438 6.0608L77.7833 5.2049L75.0951 0L72.4584 5.23055L66.6067 6.14275L70.8376 10.2313L69.9094 16L75.1608 13.2963L80.4389 15.9493L79.4535 10.1898L83.6438 6.0608Z" fill="#FFC413"/>
<path d="M105.846 6.0608L99.9855 5.2049L97.2972 0L94.6606 5.23055L88.8088 6.14275L93.0398 10.2313L92.1115 16L97.363 13.2963L102.641 15.9493L101.656 10.1898L105.846 6.0608Z" fill="#FFC413"/>
</svg>
