<svg width="100" height="100" viewBox="0 0 100 100" fill="none" xmlns="http://www.w3.org/2000/svg">
<rect width="100" height="100" rx="20" fill="#F4F4F4"/>
<path d="M50.0743 51.027C53.5473 51.0239 56.9119 49.8168 59.5948 47.6113C62.2777 45.4059 64.113 42.3384 64.7881 38.9316C65.4631 35.5248 64.9361 31.9893 63.2969 28.9274C61.6577 25.8656 59.0077 23.4667 55.7982 22.1395C52.5887 20.8123 49.0184 20.6388 45.6954 21.6487C42.3724 22.6586 39.5023 24.7892 37.574 27.6778C35.6457 30.5664 34.7786 34.0341 35.1202 37.4904C35.4618 40.9466 36.9912 44.1774 39.4477 46.6326C40.8422 48.0289 42.4989 49.1359 44.3225 49.89C46.1462 50.6442 48.1008 51.0306 50.0743 51.027V51.027ZM41.8599 27.8007C43.7602 25.9002 46.2606 24.7174 48.9352 24.4539C51.6098 24.1903 54.293 24.8624 56.5276 26.3554C58.7622 27.8484 60.41 30.0701 61.1902 32.6419C61.9704 35.2137 61.8347 37.9764 60.8062 40.4594C59.7778 42.9423 57.9202 44.9918 55.55 46.2587C53.1798 47.5255 50.4437 47.9314 47.8078 47.407C45.1719 46.8826 42.7994 45.4605 41.0946 43.383C39.3897 41.3054 38.458 38.701 38.4581 36.0135C38.4562 34.488 38.7558 32.9771 39.3396 31.5676C39.9234 30.1582 40.7799 28.8781 41.8599 27.8007V27.8007Z" fill="#C0C0C0"/>
<path d="M50.0744 53.4077C37.3514 53.4077 27 63.7576 27 76.4806C27 76.7046 27.0441 76.9264 27.1298 77.1333C27.2155 77.3402 27.3411 77.5282 27.4995 77.6866C27.6579 77.8449 27.8459 77.9706 28.0528 78.0563C28.2597 78.142 28.4815 78.1861 28.7054 78.1861H71.4419C71.8942 78.1861 72.328 78.0064 72.6479 77.6866C72.9677 77.3667 73.1474 76.933 73.1474 76.4806C73.1474 63.7576 62.796 53.4077 50.0744 53.4077ZM30.4846 74.7752C31.3508 64.7291 39.8088 56.8186 50.0744 56.8186C60.3401 56.8186 68.7966 64.7291 69.6628 74.7752H30.4846Z" fill="#C0C0C0"/>
</svg>
